<svg width="43" height="45" viewBox="0 0 43 45" fill="none" xmlns="http://www.w3.org/2000/svg">
<path d="M20.0782 2.67239L6.69274 8.01694C2.99644 9.49279 1.19767 13.6825 2.67507 17.3749L10.7003 37.4321C12.1777 41.1245 16.3718 42.9214 20.0681 41.4456L33.4536 36.101C37.1499 34.6252 38.9486 30.4355 37.4712 26.743L29.446 6.68584C27.9686 2.99342 23.7745 1.19653 20.0782 2.67239Z" fill="#8EABFF"/>
<path d="M34.9273 1.64917H20.5122C16.5316 1.64917 13.3047 4.87272 13.3047 8.84917V30.4492C13.3047 34.4256 16.5316 37.6492 20.5122 37.6492H34.9273C38.9079 37.6492 42.1349 34.4256 42.1349 30.4492V8.84917C42.1349 4.87272 38.9079 1.64917 34.9273 1.64917Z" fill="#3668FB"/>
</svg>
