<svg width="106" height="25" viewBox="0 0 106 25" fill="none" xmlns="http://www.w3.org/2000/svg">
<path d="M36.1108 6.768V18H33.3748V6.768H36.1108ZM43.5336 8.976C44.5789 8.976 45.4109 9.31733 46.0296 10C46.6589 10.672 46.9736 11.6 46.9736 12.784V18H44.2536V13.152C44.2536 12.5547 44.0989 12.0907 43.7896 11.76C43.4802 11.4293 43.0642 11.264 42.5416 11.264C42.0189 11.264 41.6029 11.4293 41.2936 11.76C40.9842 12.0907 40.8296 12.5547 40.8296 13.152V18H38.0936V9.072H40.8296V10.256C41.1069 9.86133 41.4802 9.552 41.9496 9.328C42.4189 9.09333 42.9469 8.976 43.5336 8.976ZM52.8908 15.44L54.8268 9.072H57.7388L54.5708 18H51.1948L48.0268 9.072H50.9548L52.8908 15.44ZM62.9544 18.128C62.0798 18.128 61.2904 17.9413 60.5864 17.568C59.8931 17.1947 59.3438 16.6613 58.9384 15.968C58.5438 15.2747 58.3464 14.464 58.3464 13.536C58.3464 12.6187 58.5491 11.8133 58.9544 11.12C59.3598 10.416 59.9144 9.87733 60.6184 9.504C61.3224 9.13067 62.1118 8.944 62.9864 8.944C63.8611 8.944 64.6504 9.13067 65.3544 9.504C66.0584 9.87733 66.6131 10.416 67.0184 11.12C67.4238 11.8133 67.6264 12.6187 67.6264 13.536C67.6264 14.4533 67.4184 15.264 67.0024 15.968C66.5971 16.6613 66.0371 17.1947 65.3224 17.568C64.6184 17.9413 63.8291 18.128 62.9544 18.128ZM62.9544 15.76C63.4771 15.76 63.9198 15.568 64.2824 15.184C64.6558 14.8 64.8424 14.2507 64.8424 13.536C64.8424 12.8213 64.6611 12.272 64.2984 11.888C63.9464 11.504 63.5091 11.312 62.9864 11.312C62.4531 11.312 62.0104 11.504 61.6584 11.888C61.3064 12.2613 61.1304 12.8107 61.1304 13.536C61.1304 14.2507 61.3011 14.8 61.6424 15.184C61.9944 15.568 62.4318 15.76 62.9544 15.76ZM68.5339 13.52C68.5339 12.6027 68.7046 11.7973 69.0459 11.104C69.3979 10.4107 69.8726 9.87733 70.4699 9.504C71.0673 9.13067 71.7339 8.944 72.4699 8.944C73.0993 8.944 73.6486 9.072 74.1179 9.328C74.5979 9.584 74.9659 9.92 75.2219 10.336V9.072H77.9579V18H75.2219V16.736C74.9553 17.152 74.5819 17.488 74.1019 17.744C73.6326 18 73.0833 18.128 72.4539 18.128C71.7286 18.128 71.0673 17.9413 70.4699 17.568C69.8726 17.184 69.3979 16.6453 69.0459 15.952C68.7046 15.248 68.5339 14.4373 68.5339 13.52ZM75.2219 13.536C75.2219 12.8533 75.0299 12.3147 74.6459 11.92C74.2726 11.5253 73.8139 11.328 73.2699 11.328C72.7259 11.328 72.2619 11.5253 71.8779 11.92C71.5046 12.304 71.3179 12.8373 71.3179 13.52C71.3179 14.2027 71.5046 14.7467 71.8779 15.152C72.2619 15.5467 72.7259 15.744 73.2699 15.744C73.8139 15.744 74.2726 15.5467 74.6459 15.152C75.0299 14.7573 75.2219 14.2187 75.2219 13.536ZM82.4973 15.744H86.3693V18H79.4413V15.824L83.1533 11.328H79.4733V9.072H86.2893V11.248L82.4973 15.744ZM87.3308 13.52C87.3308 12.6027 87.5015 11.7973 87.8428 11.104C88.1948 10.4107 88.6695 9.87733 89.2668 9.504C89.8641 9.13067 90.5308 8.944 91.2668 8.944C91.8961 8.944 92.4455 9.072 92.9148 9.328C93.3948 9.584 93.7628 9.92 94.0188 10.336V9.072H96.7548V18H94.0188V16.736C93.7521 17.152 93.3788 17.488 92.8988 17.744C92.4295 18 91.8801 18.128 91.2508 18.128C90.5255 18.128 89.8641 17.9413 89.2668 17.568C88.6695 17.184 88.1948 16.6453 87.8428 15.952C87.5015 15.248 87.3308 14.4373 87.3308 13.52ZM94.0188 13.536C94.0188 12.8533 93.8268 12.3147 93.4428 11.92C93.0695 11.5253 92.6108 11.328 92.0668 11.328C91.5228 11.328 91.0588 11.5253 90.6748 11.92C90.3015 12.304 90.1148 12.8373 90.1148 13.52C90.1148 14.2027 90.3015 14.7467 90.6748 15.152C91.0588 15.5467 91.5228 15.744 92.0668 15.744C92.6108 15.744 93.0695 15.5467 93.4428 15.152C93.8268 14.7573 94.0188 14.2187 94.0188 13.536Z" fill="black"/>
<rect y="6.02222" width="16" height="20" rx="4" transform="rotate(-21.7865 0 6.02222)" fill="#8EABFF"/>
<rect x="7.38281" y="1" width="16" height="20" rx="4" fill="#3668FB"/>
</svg>
